<svg version="1.1" xmlns="http://www.w3.org/2000/svg" xmlns:xlink="http://www.w3.org/1999/xlink" width="300" height="300"><defs><clipPath id="clip-1"><rect x="14.70804" y="23.54021" transform="scale(2.0397,2.0397)" width="58.565" height="100"></rect></clipPath></defs><g data-paper-data="{&quot;description&quot;:&quot;Logo for googlemusic\n====================\n\nThis logo was generated by MarkMaker and is composed of elements designed by others.\n\nThe font is Hind Mysuru Medium designed by Indian Type Foundry and released under the OFL license via Google Fonts: https://www.google.com/fonts/specimen/Hind Mysuru. The font includes this copyright statement: Copyright (c) 2015 Indian Type Foundry (info@indiantypefoundry.com)\n\nThe symbol is 'musician' designed by XOXO and released into the public domain at the Noun Project: https://thenounproject.com/term/musician/23943.\n\nMarkMaker uses semantic data from the Princeton University WordNet database http://wordnet.princeton.edu and font descriptions from Google Fonts https://www.google.com/fonts.\n\nThis design is inspired by designs that past users of MarkMaker have liked. As a result, it may be visually similar to past or future designs generated by the system. There is no guarantee that it is unique, original, or suitable in any way for use as a logo.\n\n&quot;}" fill="#81666a" fill-rule="nonzero" stroke="none" stroke-width="1" stroke-linecap="butt" stroke-linejoin="miter" stroke-miterlimit="10" stroke-dasharray="" stroke-dashoffset="0" font-family="none" font-weight="none" font-size="none" text-anchor="none" style="mix-blend-mode: normal"><g data-paper-data="{&quot;elementType&quot;:&quot;logo&quot;}"><g data-paper-data="{&quot;elementType&quot;:&quot;text&quot;}"><g data-paper-data="{&quot;baseline&quot;:72.4,&quot;elementType&quot;:&quot;row&quot;}"><g data-paper-data="{&quot;baselineProportion&quot;:0.7895310796074155,&quot;fontSize&quot;:100,&quot;baseline&quot;:72.4,&quot;elementType&quot;:&quot;word&quot;}"><path d="M160.48307,154.88131c0,1.7112 -0.4863,3.00192 -1.45891,3.87214c-0.97261,0.87023 -2.19751,1.30534 -3.6747,1.30534c-1.47719,0 -2.70575,-0.24132 -3.68567,-0.72397v-2.17191c0.93604,0.61428 2.06953,0.92142 3.40047,0.92142c2.17922,0 3.26883,-1.07499 3.26883,-3.22496v-1.1408c-0.71666,1.1993 -1.74777,1.79896 -3.09333,1.79896c-1.34556,0 -2.46442,-0.46436 -3.35659,-1.39309c-0.89217,-0.92873 -1.33825,-2.22676 -1.33825,-3.89408c0,-1.66733 0.41683,-3.03117 1.25049,-4.09153c0.83366,-1.06036 1.96349,-1.59054 3.3895,-1.59054c1.426,0 2.47539,0.6289 3.14817,1.88671v-1.73314h2.14997zM155.51401,146.435c0,0 -0.20293,0 -0.60879,0c-0.40586,0 -0.85743,0.34005 -1.3547,1.02014c-0.49727,0.68009 -0.74591,1.58688 -0.74591,2.72037c0,1.13349 0.26692,2.00006 0.80075,2.59971c0.53384,0.59965 1.17371,0.89948 1.91962,0.89948c0.74591,0 1.40041,-0.29617 1.96349,-0.88851c0.56309,-0.59234 0.84463,-1.4845 0.84463,-2.6765c0,-1.19199 -0.26692,-2.10244 -0.80075,-2.73134c-0.53384,-0.6289 -1.20662,-0.94335 -2.01834,-0.94335" data-paper-data="{&quot;elementType&quot;:&quot;letter&quot;,&quot;baseline&quot;:51.400000000000006,&quot;baselineProportion&quot;:0.727015558698727,&quot;fontSize&quot;:100}"></path><path d="M171.9569,146.16076c0,0 0.23035,0.26875 0.69106,0.80624c0.46071,0.53749 0.69106,1.6399 0.69106,3.30723c0,1.66733 -0.47168,3.04214 -1.41503,4.12444c-0.94335,1.0823 -2.23773,1.62345 -3.88311,1.62345c-1.64539,0 -2.9361,-0.53384 -3.87214,-1.60151c-0.93604,-1.06767 -1.40406,-2.42786 -1.40406,-4.08056c0,-1.6527 0.48265,-3.03117 1.44794,-4.1354c0.96529,-1.10424 2.26698,-1.65636 3.90505,-1.65636c1.63807,0 2.91782,0.53749 3.83924,1.61248zM168.08476,146.36918c0,0 -0.25046,0 -0.75139,0c-0.50093,0 -1.01466,0.37661 -1.54118,1.12983c-0.52652,0.75322 -0.78979,1.68195 -0.78979,2.78619c0,1.10424 0.27057,2.03297 0.81172,2.78619c0.54115,0.75322 1.29437,1.12983 2.25966,1.12983c0.96529,0 1.70755,-0.36564 2.22676,-1.09692c0.51921,-0.73128 0.77882,-1.66733 0.77882,-2.80813c0,-1.1408 -0.24864,-2.0805 -0.74591,-2.8191c-0.49727,-0.7386 -1.24684,-1.10789 -2.24869,-1.10789" data-paper-data="{&quot;elementType&quot;:&quot;letter&quot;,&quot;baseline&quot;:51.400000000000006,&quot;baselineProportion&quot;:0.9827915869980879,&quot;fontSize&quot;:100}"></path><path d="M184.33021,146.16076c0,0 0.23035,0.26875 0.69106,0.80624c0.46071,0.53749 0.69106,1.6399 0.69106,3.30723c0,1.66733 -0.47168,3.04214 -1.41503,4.12444c-0.94335,1.0823 -2.23773,1.62345 -3.88311,1.62345c-1.64539,0 -2.9361,-0.53384 -3.87214,-1.60151c-0.93604,-1.06767 -1.40406,-2.42786 -1.40406,-4.08056c0,-1.6527 0.48265,-3.03117 1.44794,-4.1354c0.96529,-1.10424 2.26698,-1.65636 3.90505,-1.65636c1.63807,0 2.91782,0.53749 3.83924,1.61248zM180.45807,146.36918c0,0 -0.25046,0 -0.75139,0c-0.50093,0 -1.01466,0.37661 -1.54118,1.12983c-0.52652,0.75322 -0.78979,1.68195 -0.78979,2.78619c0,1.10424 0.27057,2.03297 0.81172,2.78619c0.54115,0.75322 1.29437,1.12983 2.25966,1.12983c0.96529,0 1.70755,-0.36564 2.22676,-1.09692c0.51921,-0.73128 0.77882,-1.66733 0.77882,-2.80813c0,-1.1408 -0.24864,-2.0805 -0.74591,-2.8191c-0.49727,-0.7386 -1.24684,-1.10789 -2.24869,-1.10789" data-paper-data="{&quot;elementType&quot;:&quot;letter&quot;,&quot;baseline&quot;:51.400000000000006,&quot;baselineProportion&quot;:0.9827915869980879,&quot;fontSize&quot;:100}"></path><path d="M197.4933,154.88131c0,1.7112 -0.4863,3.00192 -1.45891,3.87214c-0.97261,0.87023 -2.19751,1.30534 -3.6747,1.30534c-1.47719,0 -2.70575,-0.24132 -3.68567,-0.72397v-2.17191c0.93604,0.61428 2.06953,0.92142 3.40047,0.92142c2.17922,0 3.26883,-1.07499 3.26883,-3.22496v-1.1408c-0.71666,1.1993 -1.74777,1.79896 -3.09333,1.79896c-1.34556,0 -2.46442,-0.46436 -3.35659,-1.39309c-0.89217,-0.92873 -1.33825,-2.22676 -1.33825,-3.89408c0,-1.66733 0.41683,-3.03117 1.25049,-4.09153c0.83366,-1.06036 1.96349,-1.59054 3.3895,-1.59054c1.426,0 2.47539,0.6289 3.14817,1.88671v-1.73314h2.14997zM192.52423,146.435c0,0 -0.20293,0 -0.60879,0c-0.40586,0 -0.85743,0.34005 -1.3547,1.02014c-0.49727,0.68009 -0.74591,1.58688 -0.74591,2.72037c0,1.13349 0.26692,2.00006 0.80075,2.59971c0.53384,0.59965 1.17371,0.89948 1.91962,0.89948c0.74591,0 1.40041,-0.29617 1.96349,-0.88851c0.56309,-0.59234 0.84463,-1.4845 0.84463,-2.6765c0,-1.19199 -0.26692,-2.10244 -0.80075,-2.73134c-0.53384,-0.6289 -1.20662,-0.94335 -2.01834,-0.94335" data-paper-data="{&quot;elementType&quot;:&quot;letter&quot;,&quot;baseline&quot;:51.400000000000006,&quot;baselineProportion&quot;:0.727015558698727,&quot;fontSize&quot;:100}"></path><path d="M202.64885,155.82467h-2.17191v-15.51051h2.17191z" data-paper-data="{&quot;elementType&quot;:&quot;letter&quot;,&quot;baseline&quot;:70.7,&quot;baselineProportion&quot;:1,&quot;fontSize&quot;:100}"></path><path d="M210.80996,155.93436c-1.72583,0 -3.10064,-0.51921 -4.12444,-1.55763c-1.0238,-1.03842 -1.53569,-2.4242 -1.53569,-4.15734c0,-1.73314 0.46802,-3.10795 1.40406,-4.12444c0.93604,-1.01648 2.12072,-1.52472 3.55403,-1.52472c1.43331,0 2.5668,0.44243 3.40047,1.32728c0.83366,0.88485 1.25049,2.16094 1.25049,3.82827c0,0.4534 -0.04388,0.92873 -0.13163,1.426h-7.30552c0.14626,0.96529 0.55578,1.70389 1.22856,2.21579c0.67278,0.5119 1.56129,0.76785 2.66553,0.76785c1.10424,0 2.05125,-0.27789 2.84103,-0.83366v1.93059c-0.81904,0.46802 -1.90134,0.70203 -3.2469,0.70203zM212.67473,149.06761c-0.02925,-0.83366 -0.25595,-1.49547 -0.68009,-1.98543c-0.42414,-0.48996 -1.01648,-0.73494 -1.77702,-0.73494c-0.76053,0 -1.40406,0.26692 -1.93059,0.80075c-0.52652,0.53384 -0.8556,1.30534 -0.98723,2.31451h5.37493v-0.39489" data-paper-data="{&quot;elementType&quot;:&quot;letter&quot;,&quot;baseline&quot;:51.300000000000004,&quot;baselineProportion&quot;:0.9903474903474904,&quot;fontSize&quot;:100}"></path><path d="M232.57294,155.82467h-2.14997v-7.02032c0,-1.5942 -0.64353,-2.3913 -1.93059,-2.3913c-0.64353,0 -1.21759,0.2852 -1.72217,0.8556c-0.50459,0.5704 -0.75688,1.41138 -0.75688,2.52293v6.03308h-2.14997v-7.02032c0,-1.5942 -0.65084,-2.3913 -1.95253,-2.3913c-0.6289,0 -1.1993,0.2852 -1.7112,0.8556c-0.5119,0.5704 -0.76785,1.41138 -0.76785,2.52293v6.03308h-2.14997v-11.12281h2.14997v1.77702c0.6289,-1.28706 1.67464,-1.93059 3.1372,-1.93059c1.66733,0 2.735,0.71666 3.20302,2.14997c0.30714,-0.68741 0.75322,-1.21759 1.33825,-1.59054c0.58503,-0.37295 1.24318,-0.55943 1.97446,-0.55943c1.1408,0 2.00737,0.33639 2.59971,1.00917c0.59234,0.67278 0.88851,1.60151 0.88851,2.78619z" data-paper-data="{&quot;elementType&quot;:&quot;letter&quot;,&quot;baseline&quot;:51.400000000000006,&quot;baselineProportion&quot;:1,&quot;fontSize&quot;:100}"></path><path d="M244.55136,155.82467h-2.14997v-1.90865c-0.58503,1.36019 -1.74045,2.04028 -3.46628,2.04028c-1.09692,0 -1.96715,-0.32542 -2.61068,-0.97626c-0.64353,-0.65084 -0.96529,-1.54666 -0.96529,-2.68746v-7.59072h2.17191v7.06419c0,0.76053 0.18648,1.3419 0.55943,1.74411c0.37295,0.40221 0.93239,0.60331 1.67829,0.60331c0.74591,0 1.37116,-0.29251 1.87574,-0.87754c0.50459,-0.58503 0.75688,-1.41138 0.75688,-2.47905v-6.05502h2.14997z" data-paper-data="{&quot;elementType&quot;:&quot;letter&quot;,&quot;baseline&quot;:50.7,&quot;baselineProportion&quot;:0.9883040935672516,&quot;fontSize&quot;:100}"></path><path d="M252.19692,149.76965c0,0 0.14443,0.06216 0.43329,0.18648c0.28886,0.12432 0.67826,0.42414 1.16822,0.89948c0.48996,0.47533 0.73494,1.15908 0.73494,2.05125c0,0.89217 -0.35102,1.61979 -1.05305,2.18288c-0.70203,0.56309 -1.68195,0.84463 -2.93976,0.84463c-1.25781,0 -2.32548,-0.21938 -3.20302,-0.65815v-2.04028c1.0238,0.6289 2.08416,0.94335 3.18108,0.94335c0.5704,0 1.01283,-0.11701 1.32728,-0.35102c0.31445,-0.23401 0.47168,-0.52652 0.47168,-0.87754c0,-0.35102 -0.12432,-0.6545 -0.37295,-0.91045c-0.24864,-0.25595 -0.50093,-0.44608 -0.75688,-0.5704c-0.25595,-0.12432 -0.69106,-0.31811 -1.30534,-0.58137c-1.74045,-0.71666 -2.61068,-1.7697 -2.61068,-3.15914c0,-0.97992 0.36564,-1.74777 1.09692,-2.30354c0.73128,-0.55578 1.67098,-0.83366 2.8191,-0.83366c1.14811,0 2.05856,0.16088 2.73134,0.48265v1.95253c-0.71666,-0.42414 -1.63807,-0.63622 -2.76425,-0.63622c-0.5119,0 -0.91776,0.11701 -1.21759,0.35102c-0.29983,0.23401 -0.44974,0.54115 -0.44974,0.92142c0,0.4534 0.19013,0.7971 0.5704,1.03111c0.11701,0.07313 0.20842,0.13529 0.27423,0.18648c0.06582,0.05119 0.17551,0.11335 0.32908,0.18648c0.15357,0.07313 0.26692,0.13163 0.34005,0.17551c0.21938,0.10238 0.61793,0.27789 1.19565,0.52652z" data-paper-data="{&quot;elementType&quot;:&quot;letter&quot;,&quot;baseline&quot;:51.2,&quot;baselineProportion&quot;:0.9903288201160542,&quot;fontSize&quot;:100}"></path><path d="M259.03076,155.82467h-2.17191v-11.12281h2.17191zM257.93383,139.9412c0,0 0.09507,0 0.2852,0c0.19013,0 0.41683,0.13163 0.68009,0.39489c0.26326,0.26326 0.39489,0.58137 0.39489,0.95432c0,0.37295 -0.13163,0.69106 -0.39489,0.95432c-0.26326,0.26326 -0.58503,0.39489 -0.96529,0.39489c-0.38027,0 -0.69838,-0.12797 -0.95432,-0.38392c-0.25595,-0.25595 -0.38392,-0.57406 -0.38392,-0.95432c0,-0.38027 0.12797,-0.70203 0.38392,-0.96529c0.25595,-0.26326 0.57406,-0.39489 0.95432,-0.39489" data-paper-data="{&quot;elementType&quot;:&quot;letter&quot;,&quot;baseline&quot;:72.4,&quot;baselineProportion&quot;:1,&quot;fontSize&quot;:100}"></path><path d="M267.25769,156.04405c-1.74045,0 -3.12989,-0.54846 -4.16831,-1.64539c-1.03842,-1.09692 -1.55763,-2.45345 -1.55763,-4.06959c0,-1.61614 0.52287,-2.99095 1.5686,-4.12444c1.04573,-1.13349 2.46077,-1.70023 4.2451,-1.70023c0.96529,0 1.85015,0.20476 2.65456,0.61428v1.97446c-0.71666,-0.4534 -1.59054,-0.68009 -2.62165,-0.68009c-1.03111,0 -1.89402,0.36564 -2.58874,1.09692c-0.69472,0.73128 -1.04208,1.66733 -1.04208,2.80813c0.02925,1.12618 0.37295,2.05125 1.03111,2.77522c0.65815,0.72397 1.57957,1.08596 2.76425,1.08596c0.87754,0 1.69658,-0.24132 2.45711,-0.72397v1.93059c-0.71666,0.43877 -1.63076,0.65815 -2.74231,0.65815z" data-paper-data="{&quot;elementType&quot;:&quot;letter&quot;,&quot;baseline&quot;:51.6,&quot;baselineProportion&quot;:0.9809885931558935,&quot;fontSize&quot;:100}"></path></g></g></g></g><g clip-path="url(#clip-1)" data-paper-data="{&quot;elementType&quot;:&quot;emblem&quot;}"><path d="M82.52433,172.54685c-8.07517,14.49615 -18.01871,17.53938 -24.93942,17.53938c-1.36864,0 -2.74136,-0.1285 -4.11204,-0.36511c-2.66997,13.54361 -7.32864,37.79769 -8.66669,48.57751c-0.69146,5.5745 0.8424,12.11786 6.34347,13.24174c0.68534,0.1387 1.36864,0.20805 2.04378,0.20805c4.73211,0 7.85285,-4.04473 8.76867,-8.87474c2.7026,-14.22487 10.93076,-54.22952 16.51749,-56.30185c4.20586,-1.56037 19.79937,17.38029 20.33785,19.318c0.95866,4.53833 -5.3073,23.53814 -7.24502,34.44238c-0.97906,5.52963 2.09681,10.51058 7.6244,11.49575c0.60579,0.10606 1.20342,0.15502 1.7929,0.15502c4.83409,0 8.13433,-3.802 9.0114,-8.72584c0.7914,-4.43227 9.66206,-30.8056 7.41635,-41.49159c-1.20546,-5.72544 -5.4358,-11.77723 -10.33516,-18.7938c-2.82702,-4.04473 -9.93946,-9.67226 -10.55137,-12.23412c-0.0306,-0.94642 -0.23049,-1.84185 -0.50381,-2.70668l-0.21213,-8.63609c-0.11218,0.04487 -0.22641,0.09587 -0.33451,0.14074c-3.82852,1.6032 -7.44491,3.1187 -12.95618,13.01125z"></path><path d="M73.5578,83.7648c5.36033,0 19.66475,1.78678 19.66475,-19.65863c0,-7.15119 -7.15119,-16.0912 -19.66475,-16.0912c-10.86548,0 -16.08508,8.79315 -16.08508,19.65863c0,10.73086 10.72067,16.0912 16.08508,16.0912z"></path><path d="M84.36822,121.77054c3.82444,-3.37162 11.0205,-9.72937 18.20025,-16.13811c-3.40834,-6.68614 -7.83449,-12.57883 -14.95712,-14.58182c-0.40386,-0.15298 -0.80976,-0.30188 -1.2483,-0.39162c-3.93254,-0.8118 -27.42173,-3.40426 -36.79008,4.68723c-7.56117,6.53112 -18.91414,28.31716 -14.5757,40.95515c0.04691,0.1387 0.12442,0.28148 0.17745,0.42018c0.45485,1.17283 1.13203,2.36401 1.98259,3.55928c4.02229,5.64997 11.86494,11.35705 18.23084,15.40994c1.42371,0.90563 2.78011,1.73986 3.99373,2.4558c1.28297,0.76285 2.6924,1.12999 4.08348,1.14019c2.75564,-0.02244 5.43172,-1.44003 6.9411,-3.9815c2.29262,-3.86319 1.01985,-8.85434 -2.84334,-11.14492c-4.56485,-2.71076 -8.99916,-5.69892 -12.17293,-8.1996c-0.96682,-0.76081 -1.81125,-1.47674 -2.50883,-2.12333c-0.87911,-0.81588 -1.53182,-1.53385 -1.86837,-2.09069l0.00204,-0.00204c-0.28556,-0.32635 -0.5242,-0.63027 -0.67718,-0.88319c-0.02448,-0.08975 -0.02652,-0.21417 -0.04283,-0.31615c-0.48545,-3.0004 1.93976,-10.47386 5.09313,-16.30741v13.69455c2.33546,-1.58689 3.16562,-3.09831 4.28541,-5.15636c1.34008,-2.46804 3.17785,-5.84782 7.39187,-10.3678c4.15895,-4.46286 8.37705,-7.24502 12.14438,-8.10985c0.82404,-0.18765 1.63176,-0.31819 2.40481,-0.31819c0.21621,0 0.42426,0.02244 0.63435,0.03875c2.52107,0.18153 4.57709,1.42983 5.68872,3.5144c0.93214,1.74598 1.89692,5.56022 -2.08661,11.48963c-0.81384,1.21158 -1.25034,2.10905 -1.48286,2.74748z"></path><path d="M129.67405,109.66696c-0.53644,-0.72205 -1.26869,-1.38292 -2.23755,-1.91324c-0.09587,-0.05303 -0.19785,-0.09995 -0.29372,-0.1489c-0.24068,-0.12646 -0.49361,-0.22845 -0.74653,-0.33043c-0.52012,-0.21009 -1.06472,-0.36715 -1.63788,-0.46709l-0.00204,0.00204c-0.15706,-0.03467 -0.2978,-0.07547 -0.46301,-0.10402c-0.32023,-0.03875 -0.63639,-0.05507 -0.9505,-0.05507c-2.27835,0 -4.35884,0.9811 -5.85394,2.54963c-0.78936,1.05045 -1.33396,2.36605 -1.51142,3.91623c-0.16318,1.42167 -0.11626,1.22382 -0.25496,2.54147c0,0.02244 -0.00408,0.04079 -0.00816,0.06119c-0.69758,6.57803 -1.89896,9.29899 -3.37774,10.14751c-0.61803,-0.64862 -1.32785,-1.80513 -2.05602,-3.19213c-0.02448,-0.04487 -0.04487,-0.08363 -0.06935,-0.13054c-0.15502,-0.2978 -0.31003,-0.62007 -0.46709,-0.93418l-11.89757,11.72828c0.13258,0.20397 0.27332,0.4059 0.41202,0.60783c0.91379,-0.37734 1.90304,-0.6731 3.01672,-0.67718c5.38277,0 7.17975,3.40222 7.69987,4.86469c0.45281,1.26257 0.54868,2.65161 0.40794,4.0794c0.76897,0.1387 1.55629,0.23049 2.38441,0.23049c1.74802,0 3.64087,-0.33043 5.67853,-1.06268c11.40601,-4.08144 12.56456,-15.11418 13.68435,-25.78385c0.08771,-0.79956 0.25292,-3.63679 -1.45635,-5.92941z"></path><path d="M42.94394,180.49148c4.42003,3.3961 9.56416,5.53371 14.82454,5.53371c7.4755,0 15.18149,-4.31193 21.38626,-15.45277c9.04403,-16.23398 14.35541,-12.73589 20.93141,-18.1207c2.91473,-2.38441 9.96394,-15.11622 1.37476,-15.11622c-0.01224,0 -0.02448,0 -0.03671,0c-1.82553,0.00816 -4.34864,2.41501 -7.18586,2.41501c-1.6338,0 -3.37162,-0.79752 -5.14209,-3.31043l22.20418,-21.88803c0.04283,-0.3957 0.07955,-0.76081 0.12646,-1.16263c0.70778,-6.12114 5.85598,-10.73902 11.99956,-10.7941l7.76718,-7.65704c1.16263,0.15502 2.20696,0.24068 3.14726,0.24068c5.18084,0 7.25929,-2.5945 9.15214,-10.53301c1.16671,-4.87896 9.89255,-4.63828 3.85707,-12.71753c-0.19581,-0.25904 -0.57316,-0.37734 -1.09532,-0.37734c-0.74041,0 -1.76842,0.23661 -2.97592,0.64862l-1.06472,-2.05398c0.14278,-0.21417 0.27128,-0.44669 0.33859,-0.71593c0.30392,-1.24422 -0.45893,-2.50679 -1.70519,-2.80663c-0.18561,-0.04487 -0.37327,-0.06731 -0.55684,-0.06731c-1.04637,0 -1.99687,0.71186 -2.25387,1.77046c-0.30392,1.2483 0.45893,2.50679 1.70519,2.81071c0.13054,0.03264 0.26312,0.04283 0.38958,0.04283c0.10606,0 0.21213,-0.00816 0.32023,-0.01632l0.92194,1.7725c-1.02189,0.43038 -2.10089,0.9403 -3.22477,1.51958l-1.38904,-1.82757c0.10606,-0.24068 0.19173,-0.48749 0.21213,-0.76489c0.08771,-1.28093 -0.87707,-2.38849 -2.158,-2.47824c-0.05711,-0.00408 -0.11422,-0.00612 -0.17133,-0.00612c-1.20546,0 -2.22735,0.93826 -2.30894,2.16208c-0.08975,1.28093 0.87299,2.39053 2.15392,2.48028c0.03467,0.00204 0.06731,0.00408 0.10199,0.00408c0.21009,0 0.40998,-0.04487 0.60579,-0.09791l1.14223,1.50326c-1.09532,0.61599 -2.19472,1.26665 -3.26352,1.95403l-1.43391,-1.67867c0.09179,-0.24476 0.16114,-0.49565 0.16522,-0.77305c0.01632,-1.28501 -1.00761,-2.3375 -2.29466,-2.35381c-0.00816,0 -0.01632,0 -0.02652,0c-1.27073,0 -2.30894,1.01577 -2.32526,2.29466c-0.0204,1.28297 1.00761,2.3375 2.29058,2.35585c0.25088,0 0.47525,-0.06527 0.70166,-0.13258l1.2177,1.42167c-1.21974,0.84852 -2.34158,1.70723 -3.32675,2.55574l-1.10552,-1.29317c0.09179,-0.24272 0.16318,-0.49769 0.16726,-0.77305c0.01836,-1.28297 -1.00965,-2.33954 -2.2967,-2.35585c-0.00816,0 -0.0204,0 -0.02856,0c-1.27073,0 -2.3069,1.02189 -2.32322,2.29466c-0.01836,1.28705 1.00761,2.3375 2.29262,2.35381c0.00408,0 0.00816,0 0.0102,0c0.24476,0 0.46913,-0.06323 0.68942,-0.13054l1.1096,1.29521c-0.59559,0.61395 -1.11572,1.21158 -1.46247,1.76434c-1.30745,2.06622 2.30486,4.35476 -1.34008,7.82837c-9.24188,8.79927 -39.31727,35.23787 -39.31727,35.23787c0,0 -8.14044,-1.0688 -1.77658,-10.53913c3.55724,-5.29506 2.55778,-8.70748 -0.86075,-8.70748c-2.69852,-0.00204 -6.90643,2.12537 -11.57326,7.13283c-8.3281,8.93185 -6.23129,12.44421 -13.13567,16.61132c2.92493,2.41705 7.5061,5.76827 12.73385,8.8727c2.80255,1.66236 4.78922,4.31805 5.59694,7.4755c0.80568,3.15746 0.33451,6.43933 -1.32988,9.24188c-2.1886,3.68778 -6.21089,5.97632 -10.50038,5.97632c-2.18452,0 -4.3364,-0.59151 -6.21905,-1.71131c-8.1588,-4.83817 -17.94936,-11.59162 -23.14856,-18.59187c-8.60346,9.92314 -3.24924,28.24169 8.71972,37.43462z"></path></g></g></svg>
